# xmcd
#
# Track frame offsets: 
#        150
#        19055
#        45386
#        65276
#        103240
#        121179
#        144273
#        163531
#
# Disc length: 2720 seconds
#
# Revision: 0
# Processed by: cddbd v1.5.1PL0 Copyright (c) Steve Scherf et al.
# Submitted via: ExactAudioCopy v0.95a5
#
DISCID=5f0a9e08
DTITLE=Ry Cooder \\ David Lindley - Live in Osaka D1
DYEAR=1979
DGENRE=R&B
TTITLE0=Ry Cooder \\ David Lindley - Alimony
TTITLE1=Ry Cooder \\ David Lindley - Go Home Girl
TTITLE2=Ry Cooder \\ David Lindley - Mexican Divorce
TTITLE3=Ry Cooder \\ David Lindley - F.D.R. In Trinidad
TTITLE4=Ry Cooder \\ David Lindley - Ax Sweet Mama
TTITLE5=Ry Cooder \\ David Lindley - Billy The Kid 
TTITLE6=Ry Cooder \\ David Lindley - Denomination Blues
TTITLE7=Ry Cooder \\ David Lindley - One Meat Ball
EXTD=
EXTT0=
EXTT1=
EXTT2=
EXTT3=
EXTT4=
EXTT5=
EXTT6=
EXTT7=
PLAYORDER=
